<svg xmlns="http://www.w3.org/2000/svg" xmlns:xlink="http://www.w3.org/1999/xlink" contentStyleType="text/css" data-diagram-type="ACTIVITY" height="1300px" preserveAspectRatio="none" style="width:2247px;height:1300px;background:#FFFFFF;" version="1.1" viewBox="0 0 2247 1300" width="2247px" zoomAndPan="magnify"><defs/><g><rect fill="none" height="20.9531" style="stroke:none;stroke-width:1;" width="2214.519" x="15" y="12.7451"/><ellipse cx="609.0381" cy="48.6982" fill="#222222" rx="10" ry="10" style="stroke:#222222;stroke-width:1;"/><rect fill="#F1F1F1" height="33.9688" rx="12.5" ry="12.5" style="stroke:#181818;stroke-width:0.5;" width="128.7266" x="544.6748" y="78.6982"/><text fill="#000000" font-family="sans-serif" font-size="12" lengthAdjust="spacing" textLength="108.7266" x="554.6748" y="99.8369">Open POS System</text><rect fill="#F1F1F1" height="33.9688" rx="12.5" ry="12.5" style="stroke:#181818;stroke-width:0.5;" width="204.4121" x="506.832" y="132.667"/><text fill="#000000" font-family="sans-serif" font-size="12" lengthAdjust="spacing" textLength="184.4121" x="516.832" y="153.8057">Enter Username and Password</text><polygon fill="#F1F1F1" points="559.3958,186.6357,658.6804,186.6357,670.6804,198.6357,658.6804,210.6357,559.3958,210.6357,547.3958,198.6357,559.3958,186.6357" style="stroke:#181818;stroke-width:0.5;"/><text fill="#000000" font-family="sans-serif" font-size="11" lengthAdjust="spacing" textLength="99.2847" x="559.3958" y="202.4438">Credentials Valid?</text><text fill="#000000" font-family="sans-serif" font-size="11" lengthAdjust="spacing" textLength="19.2178" x="528.178" y="196.0415">Yes</text><text fill="#000000" font-family="sans-serif" font-size="11" lengthAdjust="spacing" textLength="14.9585" x="670.6804" y="196.0415">No</text><rect fill="#F1F1F1" height="33.9688" rx="12.5" ry="12.5" style="stroke:#181818;stroke-width:0.5;" width="133.3613" x="363.4707" y="230.6357"/><text fill="#000000" font-family="sans-serif" font-size="12" lengthAdjust="spacing" textLength="113.3613" x="373.4707" y="251.7744">Display Dashboard</text><rect fill="#555555" height="6" rx="2.5" ry="2.5" style="stroke:#555555;stroke-width:1;" width="702.2441" x="21" y="284.6045"/><rect fill="#F1F1F1" height="33.9688" rx="12.5" ry="12.5" style="stroke:#181818;stroke-width:0.5;" width="172.2734" x="181.1973" y="310.6045"/><text fill="#000000" font-family="sans-serif" font-size="12" lengthAdjust="spacing" textLength="152.2734" x="191.1973" y="331.7432">Select "New Transaction"</text><polygon fill="#F1F1F1" points="224.9292,443.5107,309.7388,443.5107,321.7388,455.5107,309.7388,467.5107,224.9292,467.5107,212.9292,455.5107,224.9292,443.5107" style="stroke:#181818;stroke-width:0.5;"/><text fill="#000000" font-family="sans-serif" font-size="11" lengthAdjust="spacing" textLength="84.8096" x="224.9292" y="459.3188">Item Available?</text><text fill="#000000" font-family="sans-serif" font-size="11" lengthAdjust="spacing" textLength="19.2178" x="193.7114" y="452.9165">Yes</text><text fill="#000000" font-family="sans-serif" font-size="11" lengthAdjust="spacing" textLength="14.9585" x="321.7388" y="452.9165">No</text><rect fill="#F1F1F1" height="33.9688" rx="12.5" ry="12.5" style="stroke:#181818;stroke-width:0.5;" width="119.6211" x="84.9229" y="487.5107"/><text fill="#000000" font-family="sans-serif" font-size="12" lengthAdjust="spacing" textLength="99.6211" x="94.9229" y="508.6494">Add Item to Cart</text><rect fill="#F1F1F1" height="33.9688" rx="12.5" ry="12.5" style="stroke:#181818;stroke-width:0.5;" width="143.2227" x="73.1221" y="556.4795"/><text fill="#000000" font-family="sans-serif" font-size="12" lengthAdjust="spacing" textLength="123.2227" x="83.1221" y="577.6182">Calculate Total Price</text><rect fill="#F1F1F1" height="33.9688" rx="12.5" ry="12.5" style="stroke:#181818;stroke-width:0.5;" width="124.3965" x="82.5352" y="669.4482"/><text fill="#000000" font-family="sans-serif" font-size="12" lengthAdjust="spacing" textLength="104.3965" x="92.5352" y="690.5869">Confirm Payment</text><rect fill="#F1F1F1" height="33.9688" rx="12.5" ry="12.5" style="stroke:#181818;stroke-width:0.5;" width="91.7129" x="98.877" y="738.417"/><text fill="#000000" font-family="sans-serif" font-size="12" lengthAdjust="spacing" textLength="71.7129" x="108.877" y="759.5557">Record Sale</text><rect fill="#F1F1F1" height="33.9688" rx="12.5" ry="12.5" style="stroke:#181818;stroke-width:0.5;" width="124.5898" x="82.4385" y="807.3857"/><text fill="#000000" font-family="sans-serif" font-size="12" lengthAdjust="spacing" textLength="104.5898" x="92.4385" y="828.5244">Update Inventory</text><rect fill="#F1F1F1" height="33.9688" rx="12.5" ry="12.5" style="stroke:#181818;stroke-width:0.5;" width="223.4668" x="33" y="872.8389"/><text fill="#000000" font-family="sans-serif" font-size="12" lengthAdjust="spacing" textLength="203.4668" x="43" y="893.9775">Trigger Forecasting Automatically</text><rect fill="#F1F1F1" height="33.9688" rx="12.5" ry="12.5" style="stroke:#181818;stroke-width:0.5;" width="96.9863" x="96.2402" y="941.8076"/><text fill="#000000" font-family="sans-serif" font-size="12" lengthAdjust="spacing" textLength="76.9863" x="106.2402" y="962.9463">Print Receipt</text><polygon fill="#F1F1F1" points="267.334,1054.7451,279.334,1066.7451,267.334,1078.7451,255.334,1066.7451,267.334,1054.7451" style="stroke:#181818;stroke-width:0.5;"/><polygon fill="#F1F1F1" points="609.0381,1168.7139,621.0381,1180.7139,609.0381,1192.7139,597.0381,1180.7139,609.0381,1168.7139" style="stroke:#181818;stroke-width:0.5;"/><line style="stroke:#000000;stroke-width:1.5;" x1="15" x2="15" y1="12.7451" y2="1288.6826"/><rect fill="#F1F1F1" height="33.9688" rx="12.5" ry="12.5" style="stroke:#181818;stroke-width:0.5;" width="150.1602" x="871.3691" y="379.5732"/><text fill="#000000" font-family="sans-serif" font-size="12" lengthAdjust="spacing" textLength="130.1602" x="881.3691" y="400.7119">Give Order to Cashier</text><rect fill="#F1F1F1" height="33.9688" rx="12.5" ry="12.5" style="stroke:#181818;stroke-width:0.5;" width="100.1328" x="773.7822" y="612.9639"/><text fill="#000000" font-family="sans-serif" font-size="12" lengthAdjust="spacing" textLength="80.1328" x="783.7822" y="634.1025">Pay for Order</text><rect fill="#F1F1F1" height="33.9688" rx="12.5" ry="12.5" style="stroke:#181818;stroke-width:0.5;" width="181.209" x="733.2441" y="1010.7764"/><text fill="#000000" font-family="sans-serif" font-size="12" lengthAdjust="spacing" textLength="161.209" x="743.2441" y="1031.915">Receive Receipt and Order</text><rect fill="#F1F1F1" height="33.9688" rx="12.5" ry="12.5" style="stroke:#181818;stroke-width:0.5;" width="226.9355" x="955.582" y="487.5107"/><text fill="#000000" font-family="sans-serif" font-size="12" lengthAdjust="spacing" textLength="206.9355" x="965.582" y="508.6494">Inform Customer Item Unavailable</text><rect fill="#F1F1F1" height="33.9688" rx="12.5" ry="12.5" style="stroke:#181818;stroke-width:0.5;" width="145.5605" x="873.6689" y="1098.7451"/><text fill="#000000" font-family="sans-serif" font-size="12" lengthAdjust="spacing" textLength="125.5605" x="883.6689" y="1119.8838">Return to Dashboard</text><line style="stroke:#000000;stroke-width:1.5;" x1="727.2441" x2="727.2441" y1="12.7451" y2="1288.6826"/><rect fill="#F1F1F1" height="33.9688" rx="12.5" ry="12.5" style="stroke:#181818;stroke-width:0.5;" width="117.8691" x="1528.4473" y="458.9951"/><text fill="#000000" font-family="sans-serif" font-size="12" lengthAdjust="spacing" textLength="97.8691" x="1538.4473" y="480.1338">View Dashboard</text><rect fill="#555555" height="6" rx="2.5" ry="2.5" style="stroke:#555555;stroke-width:1;" width="765.7285" x="1204.5176" y="527.9639"/><rect fill="#F1F1F1" height="33.9688" rx="12.5" ry="12.5" style="stroke:#181818;stroke-width:0.5;" width="222.4004" x="1216.5176" y="610.4482"/><text fill="#000000" font-family="sans-serif" font-size="12" lengthAdjust="spacing" textLength="202.4004" x="1226.5176" y="631.5869">View Sales and Inventory Reports</text><rect fill="#F1F1F1" height="33.9688" rx="12.5" ry="12.5" style="stroke:#181818;stroke-width:0.5;" width="254.3809" x="1466.918" y="610.4482"/><text fill="#000000" font-family="sans-serif" font-size="12" lengthAdjust="spacing" textLength="234.3809" x="1476.918" y="631.5869">See Forecast Results (Auto-Generated)</text><rect fill="#F1F1F1" height="33.9688" rx="12.5" ry="12.5" style="stroke:#181818;stroke-width:0.5;" width="208.9473" x="1749.2988" y="553.9639"/><text fill="#000000" font-family="sans-serif" font-size="12" lengthAdjust="spacing" textLength="188.9473" x="1759.2988" y="575.1025">Select "Add New User Account"</text><rect fill="#F1F1F1" height="33.9688" rx="12.5" ry="12.5" style="stroke:#181818;stroke-width:0.5;" width="178.1738" x="1764.6855" y="610.4482"/><text fill="#000000" font-family="sans-serif" font-size="12" lengthAdjust="spacing" textLength="158.1738" x="1774.6855" y="631.5869">Enter Account Information</text><rect fill="#F1F1F1" height="33.9688" rx="12.5" ry="12.5" style="stroke:#181818;stroke-width:0.5;" width="166.3555" x="1770.5947" y="666.9326"/><text fill="#000000" font-family="sans-serif" font-size="12" lengthAdjust="spacing" textLength="146.3555" x="1780.5947" y="688.0713">Save Account to System</text><rect fill="#555555" height="6" rx="2.5" ry="2.5" style="stroke:#555555;stroke-width:1;" width="765.7285" x="1204.5176" y="720.9014"/><polygon fill="#F1F1F1" points="1539.665,761.9014,1635.0986,761.9014,1647.0986,773.9014,1635.0986,785.9014,1539.665,785.9014,1527.665,773.9014,1539.665,761.9014" style="stroke:#181818;stroke-width:0.5;"/><text fill="#000000" font-family="sans-serif" font-size="11" lengthAdjust="spacing" textLength="95.4336" x="1539.665" y="777.7095">Restock Needed?</text><text fill="#000000" font-family="sans-serif" font-size="11" lengthAdjust="spacing" textLength="19.2178" x="1508.4473" y="771.3071">Yes</text><text fill="#000000" font-family="sans-serif" font-size="11" lengthAdjust="spacing" textLength="14.9585" x="1647.0986" y="771.3071">No</text><rect fill="#F1F1F1" height="33.9688" rx="12.5" ry="12.5" style="stroke:#181818;stroke-width:0.5;" width="164.6152" x="1418.5308" y="795.9014"/><text fill="#000000" font-family="sans-serif" font-size="12" lengthAdjust="spacing" textLength="144.6152" x="1428.5308" y="817.04">Create Restock Request</text><rect fill="#F1F1F1" height="33.9688" rx="12.5" ry="12.5" style="stroke:#181818;stroke-width:0.5;" width="176.8672" x="1412.4048" y="861.3545"/><text fill="#000000" font-family="sans-serif" font-size="12" lengthAdjust="spacing" textLength="156.8672" x="1422.4048" y="882.4932">Update Inventory Records</text><rect fill="#F1F1F1" height="33.9688" rx="12.5" ry="12.5" style="stroke:#181818;stroke-width:0.5;" width="129.3066" x="1609.272" y="795.9014"/><text fill="#000000" font-family="sans-serif" font-size="12" lengthAdjust="spacing" textLength="109.3066" x="1619.272" y="817.04">No Restock Action</text><polygon fill="#F1F1F1" points="1587.3818,901.3232,1599.3818,913.3232,1587.3818,925.3232,1575.3818,913.3232,1587.3818,901.3232" style="stroke:#181818;stroke-width:0.5;"/><rect fill="#F1F1F1" height="33.9688" rx="12.5" ry="12.5" style="stroke:#181818;stroke-width:0.5;" width="145.5605" x="1514.6016" y="960.3232"/><text fill="#000000" font-family="sans-serif" font-size="12" lengthAdjust="spacing" textLength="125.5605" x="1524.6016" y="981.4619">Return to Dashboard</text><rect fill="#555555" height="6" rx="2.5" ry="2.5" style="stroke:#555555;stroke-width:1;" width="789.7285" x="1192.5176" y="1152.7139"/><rect fill="#F1F1F1" height="33.9688" rx="12.5" ry="12.5" style="stroke:#181818;stroke-width:0.5;" width="155.3691" x="2016.7676" y="230.6357"/><text fill="#000000" font-family="sans-serif" font-size="12" lengthAdjust="spacing" textLength="135.3691" x="2026.7676" y="251.7744">Display "Invalid Login"</text><rect fill="#F1F1F1" height="33.9688" rx="12.5" ry="12.5" style="stroke:#181818;stroke-width:0.5;" width="204.4121" x="1992.2461" y="356.6045"/><text fill="#000000" font-family="sans-serif" font-size="12" lengthAdjust="spacing" textLength="184.4121" x="2002.2461" y="377.7432">Enter Username and Password</text><polygon fill="#F1F1F1" points="2094.4521,284.6045,2106.4521,296.6045,2094.4521,308.6045,2082.4521,296.6045,2094.4521,284.6045" style="stroke:#181818;stroke-width:0.5;"/><polygon fill="#F1F1F1" points="2059.489,433.542,2129.4153,433.542,2141.4153,445.542,2129.4153,457.542,2059.489,457.542,2047.489,445.542,2059.489,433.542" style="stroke:#181818;stroke-width:0.5;"/><text fill="#000000" font-family="sans-serif" font-size="11" lengthAdjust="spacing" textLength="69.9263" x="2059.489" y="449.3501">Invalid Login</text><rect fill="#F1F1F1" height="33.9688" rx="12.5" ry="12.5" style="stroke:#181818;stroke-width:0.5;" width="61.2969" x="1687.668" y="1212.7139"/><text fill="#000000" font-family="sans-serif" font-size="12" lengthAdjust="spacing" textLength="41.2969" x="1697.668" y="1233.8525">Logout</text><ellipse cx="1718.3164" cy="1277.6826" fill="none" rx="11" ry="11" style="stroke:#222222;stroke-width:1;"/><ellipse cx="1718.3164" cy="1277.6826" fill="#222222" rx="6" ry="6" style="stroke:#222222;stroke-width:1;"/><line style="stroke:#000000;stroke-width:1.5;" x1="1186.5176" x2="1186.5176" y1="12.7451" y2="1288.6826"/><line style="stroke:#000000;stroke-width:1.5;" x1="2227.6582" x2="2227.6582" y1="12.7451" y2="1288.6826"/><line style="stroke:#181818;stroke-width:1;" x1="609.0381" x2="609.0381" y1="58.6982" y2="78.6982"/><polygon fill="#181818" points="605.0381,68.6982,609.0381,78.6982,613.0381,68.6982,609.0381,72.6982" style="stroke:#181818;stroke-width:1;"/><line style="stroke:#181818;stroke-width:1;" x1="609.0381" x2="609.0381" y1="112.667" y2="132.667"/><polygon fill="#181818" points="605.0381,122.667,609.0381,132.667,613.0381,122.667,609.0381,126.667" style="stroke:#181818;stroke-width:1;"/><line style="stroke:#181818;stroke-width:1;" x1="144.7334" x2="144.7334" y1="521.4795" y2="556.4795"/><polygon fill="#181818" points="140.7334,546.4795,144.7334,556.4795,148.7334,546.4795,144.7334,550.4795" style="stroke:#181818;stroke-width:1;"/><line style="stroke:#181818;stroke-width:1;" x1="144.7334" x2="144.7334" y1="703.417" y2="738.417"/><polygon fill="#181818" points="140.7334,728.417,144.7334,738.417,148.7334,728.417,144.7334,732.417" style="stroke:#181818;stroke-width:1;"/><line style="stroke:#181818;stroke-width:1;" x1="144.7334" x2="144.7334" y1="772.3857" y2="807.3857"/><polygon fill="#181818" points="140.7334,797.3857,144.7334,807.3857,148.7334,797.3857,144.7334,801.3857" style="stroke:#181818;stroke-width:1;"/><line style="stroke:#181818;stroke-width:1;" x1="144.7334" x2="144.7334" y1="841.3545" y2="872.8389"/><polygon fill="#181818" points="140.7334,862.8389,144.7334,872.8389,148.7334,862.8389,144.7334,866.8389" style="stroke:#181818;stroke-width:1;"/><line style="stroke:#181818;stroke-width:1;" x1="144.7334" x2="144.7334" y1="906.8076" y2="941.8076"/><polygon fill="#181818" points="140.7334,931.8076,144.7334,941.8076,148.7334,931.8076,144.7334,935.8076" style="stroke:#181818;stroke-width:1;"/><line style="stroke:#181818;stroke-width:1;" x1="212.9292" x2="144.7334" y1="455.5107" y2="455.5107"/><line style="stroke:#181818;stroke-width:1;" x1="144.7334" x2="144.7334" y1="455.5107" y2="487.5107"/><polygon fill="#181818" points="140.7334,477.5107,144.7334,487.5107,148.7334,477.5107,144.7334,481.5107" style="stroke:#181818;stroke-width:1;"/><line style="stroke:#181818;stroke-width:1;" x1="267.334" x2="267.334" y1="290.6045" y2="310.6045"/><polygon fill="#181818" points="263.334,300.6045,267.334,310.6045,271.334,300.6045,267.334,304.6045" style="stroke:#181818;stroke-width:1;"/><line style="stroke:#181818;stroke-width:1;" x1="430.1514" x2="430.1514" y1="264.6045" y2="284.6045"/><polygon fill="#181818" points="426.1514,274.6045,430.1514,284.6045,434.1514,274.6045,430.1514,278.6045" style="stroke:#181818;stroke-width:1;"/><line style="stroke:#181818;stroke-width:1;" x1="547.3958" x2="430.1514" y1="198.6357" y2="198.6357"/><line style="stroke:#181818;stroke-width:1;" x1="430.1514" x2="430.1514" y1="198.6357" y2="230.6357"/><polygon fill="#181818" points="426.1514,220.6357,430.1514,230.6357,434.1514,220.6357,430.1514,224.6357" style="stroke:#181818;stroke-width:1;"/><line style="stroke:#181818;stroke-width:1;" x1="609.0381" x2="609.0381" y1="166.6357" y2="186.6357"/><polygon fill="#181818" points="605.0381,176.6357,609.0381,186.6357,613.0381,176.6357,609.0381,180.6357" style="stroke:#181818;stroke-width:1;"/><line style="stroke:#181818;stroke-width:1;" x1="1853.7725" x2="1853.7725" y1="587.9326" y2="610.4482"/><polygon fill="#181818" points="1849.7725,600.4482,1853.7725,610.4482,1857.7725,600.4482,1853.7725,604.4482" style="stroke:#181818;stroke-width:1;"/><line style="stroke:#181818;stroke-width:1;" x1="1853.7725" x2="1853.7725" y1="644.417" y2="666.9326"/><polygon fill="#181818" points="1849.7725,656.9326,1853.7725,666.9326,1857.7725,656.9326,1853.7725,660.9326" style="stroke:#181818;stroke-width:1;"/><line style="stroke:#181818;stroke-width:1;" x1="1327.7178" x2="1327.7178" y1="533.9639" y2="610.4482"/><polygon fill="#181818" points="1323.7178,600.4482,1327.7178,610.4482,1331.7178,600.4482,1327.7178,604.4482" style="stroke:#181818;stroke-width:1;"/><line style="stroke:#181818;stroke-width:1;" x1="1594.1084" x2="1594.1084" y1="533.9639" y2="610.4482"/><polygon fill="#181818" points="1590.1084,600.4482,1594.1084,610.4482,1598.1084,600.4482,1594.1084,604.4482" style="stroke:#181818;stroke-width:1;"/><line style="stroke:#181818;stroke-width:1;" x1="1853.7725" x2="1853.7725" y1="533.9639" y2="553.9639"/><polygon fill="#181818" points="1849.7725,543.9639,1853.7725,553.9639,1857.7725,543.9639,1853.7725,547.9639" style="stroke:#181818;stroke-width:1;"/><line style="stroke:#181818;stroke-width:1;" x1="1327.7178" x2="1327.7178" y1="644.417" y2="720.9014"/><polygon fill="#181818" points="1323.7178,710.9014,1327.7178,720.9014,1331.7178,710.9014,1327.7178,714.9014" style="stroke:#181818;stroke-width:1;"/><line style="stroke:#181818;stroke-width:1;" x1="1594.1084" x2="1594.1084" y1="644.417" y2="720.9014"/><polygon fill="#181818" points="1590.1084,710.9014,1594.1084,720.9014,1598.1084,710.9014,1594.1084,714.9014" style="stroke:#181818;stroke-width:1;"/><line style="stroke:#181818;stroke-width:1;" x1="1853.7725" x2="1853.7725" y1="700.9014" y2="720.9014"/><polygon fill="#181818" points="1849.7725,710.9014,1853.7725,720.9014,1857.7725,710.9014,1853.7725,714.9014" style="stroke:#181818;stroke-width:1;"/><line style="stroke:#181818;stroke-width:1;" x1="1587.3818" x2="1587.3818" y1="492.9639" y2="527.9639"/><polygon fill="#181818" points="1583.3818,517.9639,1587.3818,527.9639,1591.3818,517.9639,1587.3818,521.9639" style="stroke:#181818;stroke-width:1;"/><line style="stroke:#181818;stroke-width:1;" x1="1500.8384" x2="1500.8384" y1="829.8701" y2="861.3545"/><polygon fill="#181818" points="1496.8384,851.3545,1500.8384,861.3545,1504.8384,851.3545,1500.8384,855.3545" style="stroke:#181818;stroke-width:1;"/><line style="stroke:#181818;stroke-width:1;" x1="1527.665" x2="1500.8384" y1="773.9014" y2="773.9014"/><line style="stroke:#181818;stroke-width:1;" x1="1500.8384" x2="1500.8384" y1="773.9014" y2="795.9014"/><polygon fill="#181818" points="1496.8384,785.9014,1500.8384,795.9014,1504.8384,785.9014,1500.8384,789.9014" style="stroke:#181818;stroke-width:1;"/><line style="stroke:#181818;stroke-width:1;" x1="1647.0986" x2="1673.9253" y1="773.9014" y2="773.9014"/><line style="stroke:#181818;stroke-width:1;" x1="1673.9253" x2="1673.9253" y1="773.9014" y2="795.9014"/><polygon fill="#181818" points="1669.9253,785.9014,1673.9253,795.9014,1677.9253,785.9014,1673.9253,789.9014" style="stroke:#181818;stroke-width:1;"/><line style="stroke:#181818;stroke-width:1;" x1="1500.8384" x2="1500.8384" y1="895.3232" y2="913.3232"/><line style="stroke:#181818;stroke-width:1;" x1="1500.8384" x2="1575.3818" y1="913.3232" y2="913.3232"/><polygon fill="#181818" points="1565.3818,909.3232,1575.3818,913.3232,1565.3818,917.3232,1569.3818,913.3232" style="stroke:#181818;stroke-width:1;"/><line style="stroke:#181818;stroke-width:1;" x1="1673.9253" x2="1673.9253" y1="829.8701" y2="913.3232"/><line style="stroke:#181818;stroke-width:1;" x1="1673.9253" x2="1599.3818" y1="913.3232" y2="913.3232"/><polygon fill="#181818" points="1609.3818,909.3232,1599.3818,913.3232,1609.3818,917.3232,1605.3818,913.3232" style="stroke:#181818;stroke-width:1;"/><line style="stroke:#181818;stroke-width:1;" x1="1587.3818" x2="1587.3818" y1="726.9014" y2="761.9014"/><polygon fill="#181818" points="1583.3818,751.9014,1587.3818,761.9014,1591.3818,751.9014,1587.3818,755.9014" style="stroke:#181818;stroke-width:1;"/><line style="stroke:#181818;stroke-width:1;" x1="1587.3818" x2="1587.3818" y1="925.3232" y2="960.3232"/><polygon fill="#181818" points="1583.3818,950.3232,1587.3818,960.3232,1591.3818,950.3232,1587.3818,954.3232" style="stroke:#181818;stroke-width:1;"/><line style="stroke:#181818;stroke-width:1;" x1="1587.3818" x2="1587.3818" y1="994.292" y2="1152.7139"/><polygon fill="#181818" points="1583.3818,1142.7139,1587.3818,1152.7139,1591.3818,1142.7139,1587.3818,1146.7139" style="stroke:#181818;stroke-width:1;"/><line style="stroke:#181818;stroke-width:1;" x1="2094.4521" x2="2094.4521" y1="308.6045" y2="356.6045"/><polygon fill="#181818" points="2090.4521,346.6045,2094.4521,356.6045,2098.4521,346.6045,2094.4521,350.6045" style="stroke:#181818;stroke-width:1;"/><line style="stroke:#181818;stroke-width:1;" x1="2141.4153" x2="2208.6582" y1="445.542" y2="445.542"/><polygon fill="#181818" points="2204.6582,383.5889,2208.6582,373.5889,2212.6582,383.5889,2208.6582,379.5889" style="stroke:#181818;stroke-width:1;"/><line style="stroke:#181818;stroke-width:1;" x1="2208.6582" x2="2208.6582" y1="296.6045" y2="445.542"/><line style="stroke:#181818;stroke-width:1;" x1="2208.6582" x2="2106.4521" y1="296.6045" y2="296.6045"/><polygon fill="#181818" points="2116.4521,292.6045,2106.4521,296.6045,2116.4521,300.6045,2112.4521,296.6045" style="stroke:#181818;stroke-width:1;"/><line style="stroke:#181818;stroke-width:1;" x1="2094.4521" x2="2094.4521" y1="390.5732" y2="433.542"/><polygon fill="#181818" points="2090.4521,423.542,2094.4521,433.542,2098.4521,423.542,2094.4521,427.542" style="stroke:#181818;stroke-width:1;"/><line style="stroke:#181818;stroke-width:1;" x1="2094.4521" x2="2094.4521" y1="264.6045" y2="284.6045"/><polygon fill="#181818" points="2090.4521,274.6045,2094.4521,284.6045,2098.4521,274.6045,2094.4521,278.6045" style="stroke:#181818;stroke-width:1;"/><line style="stroke:#181818;stroke-width:1;" x1="1718.3164" x2="1718.3164" y1="1246.6826" y2="1266.6826"/><polygon fill="#181818" points="1714.3164,1256.6826,1718.3164,1266.6826,1722.3164,1256.6826,1718.3164,1260.6826" style="stroke:#181818;stroke-width:1;"/><line style="stroke:#181818;stroke-width:1;" x1="267.334" x2="267.334" y1="344.5732" y2="362.0732"/><line style="stroke:#181818;stroke-width:1;" x1="267.334" x2="946.4492" y1="362.0732" y2="362.0732"/><line style="stroke:#181818;stroke-width:1;" x1="946.4492" x2="946.4492" y1="362.0732" y2="379.5732"/><polygon fill="#181818" points="942.4492,369.5732,946.4492,379.5732,950.4492,369.5732,946.4492,373.5732" style="stroke:#181818;stroke-width:1;"/><line style="stroke:#181818;stroke-width:1;" x1="144.7334" x2="144.7334" y1="590.4482" y2="595.4639"/><line style="stroke:#181818;stroke-width:1;" x1="144.7334" x2="823.8486" y1="595.4639" y2="595.4639"/><line style="stroke:#181818;stroke-width:1;" x1="823.8486" x2="823.8486" y1="595.4639" y2="612.9639"/><polygon fill="#181818" points="819.8486,602.9639,823.8486,612.9639,827.8486,602.9639,823.8486,606.9639" style="stroke:#181818;stroke-width:1;"/><line style="stroke:#181818;stroke-width:1;" x1="823.8486" x2="823.8486" y1="646.9326" y2="651.9482"/><line style="stroke:#181818;stroke-width:1;" x1="823.8486" x2="144.7334" y1="651.9482" y2="651.9482"/><line style="stroke:#181818;stroke-width:1;" x1="144.7334" x2="144.7334" y1="651.9482" y2="669.4482"/><polygon fill="#181818" points="140.7334,659.4482,144.7334,669.4482,148.7334,659.4482,144.7334,663.4482" style="stroke:#181818;stroke-width:1;"/><line style="stroke:#181818;stroke-width:1;" x1="144.7334" x2="144.7334" y1="975.7764" y2="993.2764"/><line style="stroke:#181818;stroke-width:1;" x1="144.7334" x2="823.8486" y1="993.2764" y2="993.2764"/><line style="stroke:#181818;stroke-width:1;" x1="823.8486" x2="823.8486" y1="993.2764" y2="1010.7764"/><polygon fill="#181818" points="819.8486,1000.7764,823.8486,1010.7764,827.8486,1000.7764,823.8486,1004.7764" style="stroke:#181818;stroke-width:1;"/><line style="stroke:#181818;stroke-width:1;" x1="321.7388" x2="1069.0498" y1="455.5107" y2="455.5107"/><line style="stroke:#181818;stroke-width:1;" x1="1069.0498" x2="1069.0498" y1="455.5107" y2="487.5107"/><polygon fill="#181818" points="1065.0498,477.5107,1069.0498,487.5107,1073.0498,477.5107,1069.0498,481.5107" style="stroke:#181818;stroke-width:1;"/><line style="stroke:#181818;stroke-width:1;" x1="823.8486" x2="823.8486" y1="1044.7451" y2="1048.7451"/><line style="stroke:#181818;stroke-width:1;" x1="823.8486" x2="237.334" y1="1048.7451" y2="1048.7451"/><line style="stroke:#181818;stroke-width:1;" x1="237.334" x2="237.334" y1="1048.7451" y2="1066.7451"/><line style="stroke:#181818;stroke-width:1;" x1="237.334" x2="255.334" y1="1066.7451" y2="1066.7451"/><polygon fill="#181818" points="245.334,1062.7451,255.334,1066.7451,245.334,1070.7451,249.334,1066.7451" style="stroke:#181818;stroke-width:1;"/><line style="stroke:#181818;stroke-width:1;" x1="1069.0498" x2="1069.0498" y1="521.4795" y2="1066.7451"/><line style="stroke:#181818;stroke-width:1;" x1="1069.0498" x2="279.334" y1="1066.7451" y2="1066.7451"/><polygon fill="#181818" points="289.334,1062.7451,279.334,1066.7451,289.334,1070.7451,285.334,1066.7451" style="stroke:#181818;stroke-width:1;"/><line style="stroke:#181818;stroke-width:1;" x1="946.4492" x2="946.4492" y1="413.542" y2="426.0107"/><line style="stroke:#181818;stroke-width:1;" x1="946.4492" x2="267.334" y1="426.0107" y2="426.0107"/><line style="stroke:#181818;stroke-width:1;" x1="267.334" x2="267.334" y1="426.0107" y2="443.5107"/><polygon fill="#181818" points="263.334,433.5107,267.334,443.5107,271.334,433.5107,267.334,437.5107" style="stroke:#181818;stroke-width:1;"/><line style="stroke:#181818;stroke-width:1;" x1="267.334" x2="267.334" y1="1078.7451" y2="1083.7451"/><line style="stroke:#181818;stroke-width:1;" x1="267.334" x2="946.4492" y1="1083.7451" y2="1083.7451"/><line style="stroke:#181818;stroke-width:1;" x1="946.4492" x2="946.4492" y1="1083.7451" y2="1098.7451"/><polygon fill="#181818" points="942.4492,1088.7451,946.4492,1098.7451,950.4492,1088.7451,946.4492,1092.7451" style="stroke:#181818;stroke-width:1;"/><line style="stroke:#181818;stroke-width:1;" x1="501.832" x2="501.832" y1="290.6045" y2="294.6045"/><line style="stroke:#181818;stroke-width:1;" x1="501.832" x2="1587.3818" y1="294.6045" y2="294.6045"/><line style="stroke:#181818;stroke-width:1;" x1="1587.3818" x2="1587.3818" y1="294.6045" y2="458.9951"/><polygon fill="#181818" points="1583.3818,448.9951,1587.3818,458.9951,1591.3818,448.9951,1587.3818,452.9951" style="stroke:#181818;stroke-width:1;"/><line style="stroke:#181818;stroke-width:1;" x1="946.4492" x2="946.4492" y1="1132.7139" y2="1138.7139"/><line style="stroke:#181818;stroke-width:1;" x1="946.4492" x2="1199.5176" y1="1138.7139" y2="1138.7139"/><line style="stroke:#181818;stroke-width:1;" x1="1199.5176" x2="1199.5176" y1="1138.7139" y2="1152.7139"/><polygon fill="#181818" points="1195.5176,1142.7139,1199.5176,1152.7139,1203.5176,1142.7139,1199.5176,1146.7139" style="stroke:#181818;stroke-width:1;"/><line style="stroke:#181818;stroke-width:1;" x1="670.6804" x2="2094.4521" y1="198.6357" y2="198.6357"/><line style="stroke:#181818;stroke-width:1;" x1="2094.4521" x2="2094.4521" y1="198.6357" y2="230.6357"/><polygon fill="#181818" points="2090.4521,220.6357,2094.4521,230.6357,2098.4521,220.6357,2094.4521,224.6357" style="stroke:#181818;stroke-width:1;"/><line style="stroke:#181818;stroke-width:1;" x1="1328.1807" x2="1328.1807" y1="1158.7139" y2="1162.7139"/><line style="stroke:#181818;stroke-width:1;" x1="1328.1807" x2="579.0381" y1="1162.7139" y2="1162.7139"/><line style="stroke:#181818;stroke-width:1;" x1="579.0381" x2="579.0381" y1="1162.7139" y2="1180.7139"/><line style="stroke:#181818;stroke-width:1;" x1="579.0381" x2="597.0381" y1="1180.7139" y2="1180.7139"/><polygon fill="#181818" points="587.0381,1176.7139,597.0381,1180.7139,587.0381,1184.7139,591.0381,1180.7139" style="stroke:#181818;stroke-width:1;"/><line style="stroke:#181818;stroke-width:1;" x1="2094.4521" x2="2094.4521" y1="457.542" y2="1180.7139"/><line style="stroke:#181818;stroke-width:1;" x1="2094.4521" x2="621.0381" y1="1180.7139" y2="1180.7139"/><polygon fill="#181818" points="631.0381,1176.7139,621.0381,1180.7139,631.0381,1184.7139,627.0381,1180.7139" style="stroke:#181818;stroke-width:1;"/><line style="stroke:#181818;stroke-width:1;" x1="609.0381" x2="609.0381" y1="1192.7139" y2="1197.7139"/><line style="stroke:#181818;stroke-width:1;" x1="609.0381" x2="1718.3164" y1="1197.7139" y2="1197.7139"/><line style="stroke:#181818;stroke-width:1;" x1="1718.3164" x2="1718.3164" y1="1197.7139" y2="1212.7139"/><polygon fill="#181818" points="1714.3164,1202.7139,1718.3164,1212.7139,1722.3164,1202.7139,1718.3164,1206.7139" style="stroke:#181818;stroke-width:1;"/><text fill="#000000" font-family="sans-serif" font-size="18" lengthAdjust="spacing" textLength="67.8604" x="337.1919" y="29.4531">Cashier</text><text fill="#000000" font-family="sans-serif" font-size="18" lengthAdjust="spacing" textLength="87.4336" x="913.1641" y="29.4531">Customer</text><text fill="#000000" font-family="sans-serif" font-size="18" lengthAdjust="spacing" textLength="78.8994" x="1667.6382" y="29.4531">Manager</text><!--SRC=[VLJBZk8m4BpdArgSuB0_a1nMYDaT8Uq26c2aFVROJR36iJEs0qBYuwUTXyays1CaALTNLrVxka1_LEIkcG_eGfRbwveCRDPRs5vyeAh8ybyca8Ez9sUm8a0ZOOFUdwsJHPQf0qmNZYIPe51xU4QjvCyPX2FpJF-HdsK0-OFojSOBF72v5uljIO23TQ_y0t1DCk9JlYLD8i1aHMVOEJGUHL3MJ8eUtFXWguH-L2U2jPCiCbZecOflUAFK9VS4ynCgZI-QFkji-UPIGWjhsLmeXWyBrABH60XsDg26ZLE2Xg-VL35ym_roXvsq6soiA99QSr2kOail5NkOYZsHO8DXYpgLoFUrZDMNviH8woxfmywfikJ-Vrj70drGfeHvmt8mA85Qtv2isGHWSb9rkA-z1R2jFR0T-gWFqfvWkhB9iwNXJYiOU3h_zWO7e_jZHgf3rXS8ZJFHug-H02nHcMw0Vz5WcKRzh3WH7m-CKZG0ecU-bPoSuaPgwu8lqebHaJPnbCnZh6zqy32D5lvu94EERPUp-uUxkCRWnCZ6LO6v4BOnOPASxzQeVmsTOHXZdH1RPCS703ipR61lNTTeIZAh35QySaLUFlbjadalOru6v1EzDVptRfoWovo_C-ELJKnpSHFU3VK_KnsB7vEcIs722kAj0NzigRejTrIpz6nat9txPu32-QWqKt-Wuedrwd9-jWstplhhTm00]--></g></svg>